<svg width="1200" height="1200" viewBox="0 0 1200 1200" fill="none" xmlns="http://www.w3.org/2000/svg">
<path d="M1180 478.325C1180 467.146 1178.51 455.99 1177.57 444.834C1176.7 395.267 1172.73 345.811 1165.69 296.733C1138.03 158.696 1052.34 74.1241 913.731 41.5467C854.669 29.9453 794.493 24.9574 734.317 26.7165C647.106 25.8703 485.187 26.6052 466.042 26.7165V118.236C493.679 118.103 685.864 117.234 784.397 118.258C833.697 117.256 882.796 124.738 929.489 140.415C968.648 153.241 1003.35 176.733 1029.58 208.13C1055.84 239.527 1072.6 277.627 1077.92 317.998C1084.45 362.734 1087.55 407.892 1087.19 453.096C1088.49 551.206 1088.69 649.339 1087.19 747.628C1087.8 794.257 1084.41 840.863 1076.99 886.934C1057.33 987.428 993.498 1049.31 891.466 1070C858.191 1076.94 824.336 1080.64 790.348 1080.97C662.707 1082.31 535.111 1082.31 407.582 1080.97C358.327 1082.04 309.316 1074.03 263.048 1057.35C225.003 1043.92 191.46 1020.36 166.141 989.276C140.823 958.19 124.731 920.803 119.627 881.256C113.03 836.587 109.866 791.473 110.155 746.337C108.863 648.226 108.684 549.915 110.155 451.804C110.066 404.04 113.788 356.365 121.299 309.203C146.15 163.617 279.875 121.977 293.136 118.192V32.1498C225.894 38.9414 185.71 52.2351 135.34 99.4424C84.0121 147.54 50.3802 212.962 32.7954 283.016C22.4317 332.005 17.9519 382.018 19.4452 432.03C18.1525 543.702 17.9742 655.352 19.4452 766.845C17.6622 819.13 22.7214 871.436 34.4892 922.451C70.7287 1049.13 153.727 1127.29 283.485 1156.95C326.678 1166.33 370.808 1171 415.026 1170.87C425.613 1170.87 435.999 1172.16 446.563 1172.87H748.425C756.025 1172.87 763.469 1171.22 771.047 1171.05C818.675 1171.65 866.237 1166.97 912.795 1157.13C1052.14 1124.91 1137.85 1039.6 1165.69 900.852C1172.71 852.331 1176.68 803.409 1177.57 754.398C1177.57 743.598 1179.24 732.976 1180 722.177V478.347V478.325Z" fill="#764AF1"/>
<path d="M818.76 323.454C818.76 310.361 822.682 297.601 830.059 286.713C837.437 275.846 847.889 267.362 860.148 262.374C872.406 257.386 885.89 256.095 898.883 258.656C911.877 261.216 923.823 267.54 933.161 276.804C942.522 286.067 948.896 297.846 951.437 310.695C954 323.521 952.663 336.815 947.559 348.884C942.478 360.953 933.852 371.263 922.82 378.499C911.788 385.736 898.816 389.589 885.555 389.544C876.752 389.589 868.037 387.919 859.88 384.601C851.745 381.305 844.346 376.429 838.15 370.283C831.931 364.137 827.006 356.833 823.685 348.795C820.364 340.756 818.671 332.138 818.76 323.454Z" fill="#764AF1"/>
<path d="M598 422.485C562.429 422.485 527.638 432.884 498.041 452.391C468.465 471.875 445.375 499.598 431.758 532.019C418.118 564.441 414.529 600.114 421.461 634.562C428.37 669.009 445.464 700.629 470.605 725.48C495.723 750.331 527.772 767.276 562.652 774.157C597.554 781.06 633.705 777.586 666.601 764.203C699.497 750.82 727.624 728.107 747.46 698.959C767.274 669.811 777.883 635.519 777.972 600.403C777.927 553.285 758.961 508.104 725.217 474.77C691.496 441.435 645.74 422.619 598 422.485ZM598 334.439C633.393 334.529 668.429 341.498 701.102 354.97C733.776 368.42 763.418 388.104 788.402 412.866C813.364 437.627 833.133 467.02 846.617 499.331C860.079 531.641 866.944 566.245 866.854 601.16C866.765 636.098 859.678 670.657 846.06 702.901C832.42 735.122 812.473 764.404 787.377 789.031C762.259 813.659 732.505 833.166 699.743 846.459C667.002 859.731 631.922 866.523 596.529 866.434C561.159 866.523 526.123 859.642 493.472 846.237C460.821 832.832 431.2 813.103 406.35 788.274C368.662 750.976 343.031 703.48 332.734 651.797C322.437 600.114 327.898 546.582 348.469 497.972C369.041 449.362 403.765 407.878 448.273 378.774C492.759 349.67 545.023 334.239 598.401 334.462H598.022L598 334.439Z" fill="#764AF1"/>
</svg>
